<svg width="21" height="24" viewBox="0 0 21 24" fill="none" xmlns="http://www.w3.org/2000/svg">
<g clip-path="url(#clip0_298_47)">
<path d="M9.8863 16.3333C12.1415 16.3333 13.9696 14.5052 13.9696 12.25C13.9696 9.99485 12.1415 8.16669 9.8863 8.16669C7.63114 8.16669 5.80298 9.99485 5.80298 12.25C5.80298 14.5052 7.63114 16.3333 9.8863 16.3333Z" fill="#331E53"/>
<path d="M8.75021 4.31665C6.64616 4.31665 4.62829 5.15248 3.14051 6.64026C1.65272 8.12805 0.816895 10.1459 0.816895 12.25C0.816895 14.354 1.65272 16.3719 3.14051 17.8597C4.62829 19.3474 6.64616 20.1833 8.75021 20.1833V18.3166C7.14123 18.3166 5.59816 17.6775 4.46044 16.5397C3.32272 15.402 2.68356 13.8589 2.68356 12.25C2.68356 10.641 3.32272 9.09791 4.46044 7.96019C5.59816 6.82248 7.14123 6.18331 8.75021 6.18331V4.31665Z" fill="#331E53"/>
<path d="M8.74998 6.18331C9.26545 6.18331 9.68331 5.76545 9.68331 5.24998C9.68331 4.73452 9.26545 4.31665 8.74998 4.31665C8.23452 4.31665 7.81665 4.73452 7.81665 5.24998C7.81665 5.76545 8.23452 6.18331 8.74998 6.18331Z" fill="#331E53"/>
<path d="M8.74998 20.1833C9.26545 20.1833 9.68331 19.7654 9.68331 19.2499C9.68331 18.7345 9.26545 18.3166 8.74998 18.3166C8.23452 18.3166 7.81665 18.7345 7.81665 19.2499C7.81665 19.7654 8.23452 20.1833 8.74998 20.1833Z" fill="#331E53"/>
<path d="M20.1833 12.25C20.1833 9.21765 18.9787 6.30955 16.8346 4.16539C14.6904 2.02123 11.7823 0.81665 8.75 0.81665V2.68331C11.2872 2.68331 13.7205 3.69122 15.5146 5.48532C17.3087 7.27941 18.3166 9.71272 18.3166 12.25H20.1833Z" fill="#331E53"/>
<path d="M19.25 13.1833C19.7654 13.1833 20.1833 12.7654 20.1833 12.25C20.1833 11.7345 19.7654 11.3167 19.25 11.3167C18.7345 11.3167 18.3167 11.7345 18.3167 12.25C18.3167 12.7654 18.7345 13.1833 19.25 13.1833Z" fill="#331E53"/>
<path d="M8.74998 2.68331C9.26545 2.68331 9.68331 2.26545 9.68331 1.74998C9.68331 1.23452 9.26545 0.81665 8.74998 0.81665C8.23452 0.81665 7.81665 1.23452 7.81665 1.74998C7.81665 2.26545 8.23452 2.68331 8.74998 2.68331Z" fill="#331E53"/>
<path d="M8.75 23.6833C9.17357 23.6833 9.5968 23.6597 10.0178 23.6127L9.81079 21.7576C9.45856 21.7969 9.10442 21.8166 8.75 21.8166V23.6833Z" fill="#331E53"/>
<path d="M8.74998 23.6833C9.26545 23.6833 9.68331 23.2654 9.68331 22.75C9.68331 22.2345 9.26545 21.8167 8.74998 21.8167C8.23452 21.8167 7.81665 22.2345 7.81665 22.75C7.81665 23.2654 8.23452 23.6833 8.74998 23.6833Z" fill="#331E53"/>
<path d="M9.91404 23.6186C10.4295 23.6186 10.8474 23.2007 10.8474 22.6852C10.8474 22.1698 10.4295 21.7519 9.91404 21.7519C9.39858 21.7519 8.98071 22.1698 8.98071 22.6852C8.98071 23.2007 9.39858 23.6186 9.91404 23.6186Z" fill="#331E53"/>
<path d="M12.4909 23.054C12.8911 22.9154 13.2834 22.7547 13.6658 22.5726L12.8632 20.8872C12.5432 21.0396 12.215 21.1741 11.8801 21.2901L12.4909 23.054Z" fill="#331E53"/>
<path d="M12.1855 23.1052C12.701 23.1052 13.1189 22.6874 13.1189 22.1719C13.1189 21.6565 12.701 21.2386 12.1855 21.2386C11.6701 21.2386 11.2522 21.6565 11.2522 22.1719C11.2522 22.6874 11.6701 23.1052 12.1855 23.1052Z" fill="#331E53"/>
<path d="M13.2644 22.6632C13.7799 22.6632 14.1977 22.2454 14.1977 21.7299C14.1977 21.2144 13.7799 20.7966 13.2644 20.7966C12.7489 20.7966 12.3311 21.2144 12.3311 21.7299C12.3311 22.2454 12.7489 22.6632 13.2644 22.6632Z" fill="#331E53"/>
<path d="M15.82 21.2353C16.1529 20.9734 16.471 20.6931 16.7728 20.3959L15.4629 19.066C15.2104 19.3147 14.9443 19.5491 14.6658 19.7683L15.82 21.2353Z" fill="#331E53"/>
<path d="M15.2429 21.4351C15.7584 21.4351 16.1762 21.0173 16.1762 20.5018C16.1762 19.9863 15.7584 19.5685 15.2429 19.5685C14.7274 19.5685 14.3096 19.9863 14.3096 20.5018C14.3096 21.0173 14.7274 21.4351 15.2429 21.4351Z" fill="#331E53"/>
<path d="M16.1177 20.6643C16.6331 20.6643 17.051 20.2464 17.051 19.7309C17.051 19.2155 16.6331 18.7976 16.1177 18.7976C15.6022 18.7976 15.1843 19.2155 15.1843 19.7309C15.1843 20.2464 15.6022 20.6643 16.1177 20.6643Z" fill="#331E53"/>
<path d="M18.3708 18.4274C18.5997 18.071 18.8085 17.7021 18.9965 17.3225L17.3236 16.4943C17.1663 16.812 16.9916 17.1206 16.8 17.4188L18.3708 18.4274Z" fill="#331E53"/>
<path d="M17.5854 18.8565C18.1009 18.8565 18.5188 18.4386 18.5188 17.9231C18.5188 17.4077 18.1009 16.9898 17.5854 16.9898C17.07 16.9898 16.6521 17.4077 16.6521 17.9231C16.6521 18.4386 17.07 18.8565 17.5854 18.8565Z" fill="#331E53"/>
<path d="M18.1599 17.8418C18.6754 17.8418 19.0932 17.4239 19.0932 16.9084C19.0932 16.393 18.6754 15.9751 18.1599 15.9751C17.6444 15.9751 17.2266 16.393 17.2266 16.9084C17.2266 17.4239 17.6444 17.8418 18.1599 17.8418Z" fill="#331E53"/>
<path d="M19.8624 14.9395C19.962 14.5278 20.0387 14.1109 20.0921 13.6907L18.2403 13.4555C18.1956 13.8071 18.1315 14.1559 18.0481 14.5004L19.8624 14.9395Z" fill="#331E53"/>
<path d="M18.9553 15.6533C19.4708 15.6533 19.8886 15.2354 19.8886 14.72C19.8886 14.2045 19.4708 13.7866 18.9553 13.7866C18.4398 13.7866 18.022 14.2045 18.022 14.72C18.022 15.2354 18.4398 15.6533 18.9553 15.6533Z" fill="#331E53"/>
<path d="M19.1662 14.5065C19.6817 14.5065 20.0996 14.0886 20.0996 13.5732C20.0996 13.0577 19.6817 12.6398 19.1662 12.6398C18.6508 12.6398 18.2329 13.0577 18.2329 13.5732C18.2329 14.0886 18.6508 14.5065 19.1662 14.5065Z" fill="#331E53"/>
<path d="M19.25 13.9999C20.2165 13.9999 21 13.2164 21 12.2499C21 11.2834 20.2165 10.4999 19.25 10.4999C18.2835 10.4999 17.5 11.2834 17.5 12.2499C17.5 13.2164 18.2835 13.9999 19.25 13.9999Z" fill="#331E53"/>
<path d="M8.75 3.49999C9.71649 3.49999 10.5 2.71649 10.5 1.75C10.5 0.7835 9.71649 0 8.75 0C7.7835 0 7 0.7835 7 1.75C7 2.71649 7.7835 3.49999 8.75 3.49999Z" fill="#331E53"/>
<path d="M1.75 13.9999C2.71649 13.9999 3.49999 13.2164 3.49999 12.2499C3.49999 11.2834 2.71649 10.4999 1.75 10.4999C0.7835 10.4999 0 11.2834 0 12.2499C0 13.2164 0.7835 13.9999 1.75 13.9999Z" fill="#331E53"/>
</g>
<defs>
<clipPath id="clip0_298_47">
<rect width="21" height="23.6833" fill="white"/>
</clipPath>
</defs>
</svg>
