<svg width="194" height="206" viewBox="0 0 194 206" fill="none" xmlns="http://www.w3.org/2000/svg">
<path d="M69.9953 152.268C73.7269 148.541 79.1346 146.403 84.8318 146.403L85.0515 146.403C88.8041 146.405 92.4897 145.441 95.7314 143.61L96.0688 143.42L95.7971 143.148C94.3262 141.675 93.098 139.99 92.1555 138.155C92.8249 138.759 93.6232 139.214 94.494 139.486C95.3649 139.759 96.2869 139.843 97.1949 139.732C98.1535 139.621 99.0737 139.301 99.8866 138.797C100.7 138.293 101.384 137.617 101.889 136.82C103.88 133.69 106.253 129.25 106.253 125.868C106.25 123.009 105.632 120.182 104.439 117.567C103.245 114.952 101.502 112.606 99.3206 110.68C97.9396 109.474 96.8366 108 96.0834 106.353C95.3302 104.706 94.9438 102.925 94.9493 101.124L94.9504 100.867C94.9507 98.4962 94.6516 96.1339 94.0596 93.8332C93.4675 91.5324 93.9995 93.6008 93.9995 93.6008C93.9995 93.6008 95.3442 93.5567 93.7527 93.6092C92.1611 93.6616 90.5688 93.5324 89.0085 93.2242C90.4721 93.0504 91.9038 92.6815 93.2632 92.1282C93.2632 92.1282 93.4481 92.1001 93.5287 92.0241C93.7285 91.8359 93.2632 91.3777 93.2632 91.3777C87.052 87.6529 73.2069 89.9647 65.069 71.931C58.4703 57.3082 35.1878 84.9118 35.1878 100.867C35.1878 102.495 36.8513 104.647 35.606 105.723C22.1441 117.355 31.4326 124.825 34.3611 132.341C35.056 134.125 33.5494 136.082 33.5494 138.012C33.5494 138.339 33.558 138.677 33.575 139.016L33.6009 139.537L34.0498 139.248C34.9378 138.685 35.7609 138.031 36.505 137.297C35.733 139.018 35.3692 140.885 35.4403 142.76C35.5114 144.635 36.0157 146.47 36.9159 148.131C38.3267 150.71 39.6916 152.557 40.9726 153.619C45.076 157.02 50.366 158.774 55.7607 158.523C61.1554 158.272 66.2473 156.035 69.9953 152.268Z" fill="#E6E6E6"/>
<path d="M46.295 191.068C46.2033 191.068 46.1146 191.036 46.0454 190.977C45.9761 190.919 45.9309 190.839 45.918 190.751C45.9018 190.64 44.3151 179.556 45.7401 164.825C47.0562 151.221 51.2825 131.626 63.9431 115.533C63.9734 115.494 64.0113 115.462 64.0546 115.437C64.0979 115.413 64.1457 115.397 64.1954 115.39C64.245 115.384 64.2955 115.387 64.344 115.399C64.3924 115.412 64.4379 115.433 64.4777 115.463C64.5176 115.492 64.5511 115.529 64.5763 115.571C64.6015 115.613 64.6178 115.659 64.6245 115.707C64.6312 115.755 64.628 115.804 64.6152 115.851C64.6023 115.898 64.5801 115.942 64.5496 115.98C51.9985 131.935 47.8062 151.386 46.4994 164.894C45.0826 179.54 46.6569 190.537 46.673 190.647C46.6806 190.699 46.6766 190.752 46.6611 190.803C46.6456 190.854 46.619 190.901 46.5832 190.941C46.5474 190.981 46.5031 191.013 46.4534 191.035C46.4036 191.057 46.3496 191.068 46.295 191.068Z" fill="#323232"/>
<path d="M39.1755 96.1347C39.1697 96.0569 39.1894 95.9793 39.2319 95.913C39.2744 95.8468 39.3374 95.7952 39.412 95.7658C39.4866 95.7364 39.5689 95.7306 39.6471 95.7493C39.7253 95.7679 39.7954 95.8101 39.8473 95.8698C42.5427 99.1845 44.802 102.811 46.5734 106.666C49.3716 112.686 52.1915 121.941 49.7323 131.843C49.7206 131.89 49.6995 131.935 49.6701 131.974C49.6406 132.013 49.6035 132.047 49.5608 132.072C49.5181 132.098 49.4706 132.114 49.4211 132.122C49.3716 132.13 49.3211 132.128 49.2723 132.116C49.2236 132.105 49.1777 132.084 49.1372 132.056C49.0966 132.027 49.0623 131.991 49.0362 131.95C49.0101 131.909 48.9926 131.863 48.9848 131.815C48.9771 131.767 48.9791 131.718 48.9909 131.671C51.3996 121.971 48.6275 112.884 45.878 106.969C44.1366 103.176 41.915 99.6076 39.2643 96.3459C39.2124 96.2864 39.1813 96.2124 39.1755 96.1347Z" fill="#323232"/>
<path d="M167.971 190.677H137.617L137.486 190.448C137.098 189.766 136.724 189.043 136.373 188.301C133.247 181.818 131.925 174.403 130.759 167.861L129.881 162.93C129.775 162.333 129.855 161.718 130.111 161.165C130.367 160.612 130.788 160.146 131.32 159.826C131.851 159.506 132.469 159.347 133.094 159.37C133.72 159.392 134.324 159.594 134.83 159.951C139.442 163.202 144.057 166.45 148.674 169.695C150.422 170.927 152.418 172.353 154.33 173.893C154.514 173.026 154.707 172.155 154.9 171.297C155.033 170.705 155.346 170.164 155.798 169.745C156.25 169.325 156.821 169.046 157.438 168.942C158.055 168.839 158.69 168.916 159.261 169.165C159.832 169.413 160.314 169.82 160.645 170.335L164.196 175.862C166.787 179.897 169.073 183.874 168.607 188.164C168.609 188.216 168.605 188.268 168.595 188.319C168.502 189.024 168.329 189.716 168.079 190.384L167.971 190.677Z" fill="#F0F0F0"/>
<path d="M153.829 75.0961L147.971 54.0954C147.72 53.2063 147.118 52.4485 146.295 51.9854C145.473 51.5223 144.495 51.3911 143.573 51.62C143.097 51.7385 142.65 51.9497 142.26 52.2409C141.87 52.5321 141.546 52.8971 141.306 53.3137C141.067 53.7304 140.917 54.1898 140.867 54.6641C140.817 55.1384 140.868 55.6177 141.015 56.0726L147.791 77.7065L151.335 91.0202C150.819 91.402 150.437 91.9285 150.24 92.5282C150.044 93.1279 150.042 93.7717 150.237 94.372C150.431 94.9724 150.811 95.5003 151.326 95.8839C151.841 96.2676 152.465 96.4885 153.114 96.5165C153.763 96.5446 154.405 96.3785 154.953 96.0407C155.502 95.703 155.929 95.21 156.178 94.6288C156.426 94.0476 156.484 93.4063 156.344 92.792C156.203 92.1778 155.871 91.6203 155.392 91.1955L153.829 75.0961Z" fill="#EB996E"/>
<path d="M104.535 70.5731L122.334 57.3057C123.086 56.7414 123.579 55.9133 123.707 55C123.834 54.0866 123.586 53.1614 123.015 52.4238C122.72 52.0423 122.348 51.723 121.921 51.4853C121.494 51.2477 121.022 51.0967 120.533 51.0417C120.044 50.9866 119.548 51.0285 119.077 51.165C118.605 51.3014 118.167 51.5294 117.789 51.8351L99.7368 66.1657L88.3883 74.4257C87.8267 74.1094 87.1783 73.9683 86.531 74.0215C85.8837 74.0746 85.269 74.3195 84.7704 74.7228C84.2718 75.1261 83.9135 75.6683 83.7442 76.2758C83.5748 76.8832 83.6026 77.5264 83.8238 78.1179C84.045 78.7095 84.4489 79.2208 84.9805 79.5823C85.5122 79.9439 86.1458 80.1381 86.7954 80.1387C87.445 80.1392 88.0791 79.9461 88.6114 79.5855C89.1437 79.2249 89.5485 78.7143 89.7708 78.1231L104.535 70.5731Z" fill="#EB996E"/>
<path d="M119.042 73.6231L118.257 90.5945L142.891 85.4088C140.795 78.5893 139.369 77.4261 140.944 72.6802L119.042 73.6231Z" fill="#E6E6E6"/>
<path d="M134.189 42.5098H125.98L122.455 48.3521L120.776 48.2623C119.954 48.2184 119.132 48.3372 118.36 48.6114C117.587 48.8857 116.88 49.3097 116.283 49.8574C115.685 50.4051 115.209 51.0652 114.884 51.7971C114.559 52.5291 114.391 53.3176 114.391 54.1145L116.46 57.2213C116.46 57.2213 112.759 63.4688 118.091 66.5424C118.091 66.5424 117.14 72.3333 118.091 72.271C119.042 72.2088 121.232 71.0302 119.042 72.2088C116.851 73.3874 117.015 73.5456 117.298 73.8201L117.581 74.0945L140.612 77.8401C140.612 77.8401 141.286 73.5157 141.359 72.7444C141.431 71.9731 140.944 73.8588 141.431 71.9731C141.918 70.0873 142.648 70.7945 141.918 70.0874C141.188 69.3802 146.648 60.6195 144.405 57.2213L148.002 53.8231C148.002 50.5634 142.597 47.9209 139.231 47.9209H138.8L134.189 42.5098Z" fill="#E6E6E6"/>
<path d="M114.412 184.134H111.089L109.509 171.722L114.412 171.723L114.412 184.134Z" fill="#EB996E"/>
<path d="M104.384 188.882C104.386 189.242 104.534 189.588 104.797 189.843C105.06 190.098 105.416 190.242 105.788 190.245H112.042L112.236 189.856L113.121 188.088L113.463 189.856L113.539 190.245H115.898L115.865 189.853L115.235 182.547L114.413 182.498L110.857 182.294L109.984 182.242V184.424C109.321 185.107 104.12 187.688 104.384 188.882Z" fill="#323232"/>
<path d="M163.787 175.706L160.993 177.446L152.73 167.836L156.854 165.267L163.787 175.706Z" fill="#EB996E"/>
<path d="M158.006 184.953C158.208 185.255 158.526 185.468 158.89 185.545C159.253 185.622 159.633 185.556 159.948 185.363L165.207 182.086L165.153 181.657L164.909 179.707L166.185 181.014L166.466 181.302L168.45 180.066L168.203 179.754L163.593 173.939L162.874 174.329L159.77 176.021L159.006 176.435L160.225 178.269C160.049 179.191 157.117 184.087 158.006 184.953Z" fill="#323232"/>
<path d="M192.919 190.867L1.82627 191.068C1.63554 191.067 1.45296 190.984 1.31843 190.838C1.18391 190.692 1.1084 190.495 1.1084 190.288C1.1084 190.082 1.18391 189.885 1.31843 189.739C1.45296 189.593 1.63554 189.51 1.82627 189.509L192.919 189.308C193.11 189.309 193.292 189.392 193.427 189.538C193.561 189.684 193.637 189.881 193.637 190.087C193.637 190.293 193.561 190.491 193.427 190.637C193.292 190.783 193.11 190.866 192.919 190.867Z" fill="#CACACA"/>
<path d="M142.505 83.4916C142.505 83.4916 126.759 91.5591 118.43 86.055C118.43 86.055 116.608 94.6017 115.878 95.3088C115.148 96.0159 113.985 96.324 114.81 97.1128C115.635 97.9016 116.094 98.967 114.526 100.32C112.958 101.673 111.394 101.244 112.906 102.637C114.418 104.03 108.334 138.209 108.334 138.209C108.334 138.209 109.307 169.993 108.334 170.955C107.36 171.916 106.988 172.589 107.318 173.32C108.577 174.509 108.577 173.587 108.577 175.226V176.866L109.153 178.495H117.055C117.055 178.495 118.962 176.35 117.055 174.486C117.055 174.486 117.635 172.113 118.217 170.365C118.501 169.509 118.798 169.949 118.798 168.616C117.825 166.73 117.357 167.089 117.348 165.849C117.338 164.609 131.697 116.052 131.697 116.052L133.436 142.927L154.354 172.361L160.512 167.888C160.512 167.888 156.029 161.776 157.077 160.935C158.125 160.095 153.987 159.041 155.292 158.093C156.597 157.145 153.456 156.19 154.64 154.934C155.824 153.677 153.009 150.51 151.378 150.51C149.746 150.51 147.457 145.231 147.457 145.231L150.875 103.527L142.505 83.4916Z" fill="#323232"/>
<path d="M125.815 25.355C125.704 25.4967 124.816 25.4204 123.749 25.2694C121.638 24.9709 121.35 25.3256 119.772 26.7159C117.486 28.7299 118.786 41.0139 117.662 43.6755L117.299 43.9346C118.019 43.8014 118.726 43.6098 119.413 43.3617C119.801 42.1764 120.19 40.9873 120.581 39.8029C120.951 40.7244 121.183 41.6922 121.271 42.677C121.815 42.4696 122.355 41.9622 124.625 41.2817C125.769 40.5304 134.04 39.775 135.104 39.4445C137.803 30.5507 133.453 26.9541 125.815 25.355Z" fill="#323232"/>
<path d="M128.608 39.0694C132.974 39.0694 136.513 35.6417 136.513 31.4134C136.513 27.1851 132.974 23.7573 128.608 23.7573C124.243 23.7573 120.704 27.1851 120.704 31.4134C120.704 35.6417 124.243 39.0694 128.608 39.0694Z" fill="#EB996E"/>
<path d="M133.585 24.6802C133.139 24.6166 132.711 24.471 132.322 24.2513C132.129 24.1385 131.973 23.9754 131.871 23.7807C131.769 23.5861 131.726 23.3676 131.746 23.1503C131.844 22.6063 132.479 22.2815 133.048 22.3146C133.614 22.3937 134.152 22.6047 134.616 22.9294C134.565 22.4037 134.333 21.9099 133.958 21.5272C133.582 21.1445 133.085 20.8951 132.545 20.8192C133.294 20.7801 134.072 20.7457 134.764 21.0245C135.456 21.3032 136.032 21.9935 135.907 22.7093C137.071 22.5641 138.218 23.3492 138.698 24.3858C139.179 25.4223 139.084 26.6395 138.7 27.7132C138.662 27.8776 138.588 28.0322 138.483 28.1665C138.378 28.3008 138.245 28.4118 138.092 28.4917C137.7 28.6357 137.279 28.3943 136.939 28.1564C135.167 26.9137 133.554 25.4708 132.135 23.8584" fill="#323232"/>
<path d="M137.031 39.5529C136.696 39.7057 136.871 40.2742 136.61 40.5288C136.497 40.6366 136.361 40.7187 136.211 40.7692C136.172 40.2947 136.058 39.8289 135.873 39.3879C135.839 39.3078 135.783 39.2182 135.695 39.2253C135.593 39.2371 135.566 39.3667 135.564 39.4634C135.543 39.9428 135.433 40.4147 135.24 40.8564C135.238 40.8612 135.235 40.8682 135.233 40.8729C135.157 40.8706 135.079 40.8682 135.006 40.8659C134.442 40.8447 133.191 39.4398 132.913 39.9159C133.892 38.2353 135.084 35.7084 135.267 33.7874C135.33 33.3852 135.299 32.9744 135.177 32.5852C135.113 32.3916 134.993 32.2199 134.831 32.0903C134.669 31.9608 134.472 31.879 134.264 31.8545C134.161 31.85 134.059 31.8675 133.964 31.9058C133.869 31.9441 133.784 32.0023 133.715 32.0762C133.646 32.1501 133.594 32.2378 133.564 32.3331C133.534 32.4285 133.526 32.529 133.541 32.6277L133.4 32.6088C132.091 31.5764 133.22 29.7826 131.697 29.0731C131.181 28.8327 128.022 29.6364 127.464 29.495C127.453 28.9264 127.333 28.3647 127.112 27.838C127.078 27.7578 127.022 27.6682 126.934 27.6753C126.832 27.6871 126.805 27.8167 126.803 27.9134C126.782 28.3928 126.672 28.8647 126.479 29.3065C125.707 29.2004 124.921 29.2404 124.164 29.4243C123.498 29.594 122.865 29.8863 122.196 30.0419C121.865 30.1401 121.517 30.1719 121.173 30.1354C120.829 30.0989 120.496 29.9949 120.195 29.8297C119.346 29.2782 119.197 28.0572 119.621 27.1567C119.927 26.5789 120.341 26.0611 120.843 25.6293C121.225 25.271 121.621 24.9269 122.018 24.5827C122.373 24.2739 122.729 23.9651 123.084 23.6564C123.531 23.2486 124.008 22.8721 124.51 22.5297C125.312 22.0205 126.213 21.6755 127.157 21.5158C128.102 21.3561 129.07 21.3851 130.003 21.6009C131.122 21.8602 132.619 21.4949 133.644 22.0016C134.179 22.268 135.364 23.2887 135.834 23.6516C137.036 24.578 136.222 23.8232 137.537 24.3588C140.673 25.6359 139.286 38.5247 137.031 39.5529Z" fill="#323232"/>
<path d="M49.5098 0.973999C76.3222 0.973999 98.0311 22.0223 98.0312 47.9535C98.0312 73.8848 76.3222 94.934 49.5098 94.934C22.6974 94.9338 0.989258 73.8847 0.989258 47.9535C0.989398 22.0224 22.6975 0.974161 49.5098 0.973999Z" fill="white" stroke="#331E53"/>
<path d="M49.5101 95.9074C22.2102 95.9074 0 74.3954 0 47.9537C0 21.512 22.2102 0 49.5101 0C76.81 0 99.0202 21.512 99.0202 47.9537C99.0202 74.3954 76.8101 95.9074 49.5101 95.9074ZM49.5101 0.947873C22.7498 0.947873 0.978638 22.0347 0.978638 47.9537C0.978638 73.8727 22.7498 94.9595 49.5101 94.9595C76.2704 94.9595 98.0416 73.8727 98.0416 47.9537C98.0416 22.0347 76.2704 0.947873 49.5101 0.947873Z" fill="#806D95"/>
<rect x="166.423" y="171.198" width="12.2926" height="21.7132" transform="rotate(-29.5738 166.423 171.198)" fill="white"/>
<path d="M51.1229 72.7477C52.9889 71.5837 54.8604 70.4252 56.7263 69.2612C57.571 68.736 58.4267 68.2163 59.2493 67.6533C61.2036 66.3161 63.0364 64.7948 64.665 63.084C67.8891 59.6896 70.3403 55.6671 71.8916 51.2873C73.1558 47.7088 73.6968 43.9354 73.6968 40.1565V32.9508C73.6968 31.9817 73.0067 31.1371 72.0738 30.861C71.4002 30.6607 70.7322 30.455 70.0863 30.1897C70.263 30.2601 70.4396 30.3359 70.6163 30.4063C69.4625 29.9244 68.3804 29.3073 67.3867 28.5601L67.8339 28.9012C66.8512 28.1541 65.9679 27.2933 65.2061 26.3297L65.5539 26.7682C64.792 25.7937 64.1571 24.7272 63.6658 23.5957C63.7376 23.7689 63.8149 23.9422 63.8866 24.1154C63.721 23.7256 63.5664 23.325 63.4339 22.9244C63.1358 22.0094 62.3022 21.3327 61.303 21.3327H41.4894C40.5784 21.3327 39.662 21.3056 38.7511 21.3327H38.7125C37.7077 21.3327 36.8796 22.0094 36.5815 22.9244C36.449 23.3304 36.2999 23.7256 36.1288 24.1154C36.2006 23.9422 36.2779 23.7689 36.3496 23.5957C35.8583 24.7272 35.2234 25.7883 34.4616 26.7682L34.8094 26.3297C34.0475 27.2933 33.1642 28.1541 32.1815 28.9012L32.6287 28.5601C31.635 29.3073 30.5474 29.9244 29.3991 30.4063C29.5758 30.3359 29.7524 30.2601 29.9291 30.1897C29.2777 30.455 28.6152 30.6607 27.9417 30.861C27.0087 31.1371 26.3186 31.9817 26.3186 32.9508V39.4798C26.3186 40.6275 26.3186 41.7753 26.4014 42.923C26.5781 45.2563 26.9811 47.5843 27.6491 49.831C28.974 54.292 31.2706 58.4011 34.318 61.9471C36.6864 64.7028 39.5406 66.9332 42.6321 68.8552L48.7435 72.6557C48.7932 72.6881 48.8484 72.7206 48.8981 72.7531C49.8752 73.3594 51.3768 72.9859 51.9179 71.9735C52.492 70.9016 52.1663 69.6618 51.1229 69.0122C50.1292 68.395 49.1355 67.7778 48.1473 67.1606C46.8775 66.3702 45.6133 65.5852 44.3435 64.7948C43.4547 64.2426 42.588 63.6525 41.7488 63.0245L42.196 63.3655C40.1092 61.7793 38.2322 59.9386 36.6146 57.8922L36.9624 58.3307C35.3173 56.2356 33.9481 53.9401 32.8937 51.5039C32.9655 51.6771 33.0428 51.8504 33.1145 52.0236C32.038 49.517 31.3038 46.8859 30.9339 44.1898C30.9615 44.3793 30.9891 44.5742 31.0112 44.7637C30.7738 43.0096 30.7351 41.2555 30.7351 39.496V32.9724C30.1941 33.6708 29.6531 34.3638 29.1121 35.0621C31.0167 34.4991 32.8606 33.752 34.4781 32.6097C36.3938 31.2562 38.0279 29.5888 39.2424 27.5965C39.9104 26.5029 40.4459 25.3119 40.8434 24.0992C40.1313 24.6297 39.4246 25.1603 38.7125 25.6908H58.5261C59.437 25.6908 60.3534 25.7125 61.2643 25.6908H61.303C60.5908 25.1603 59.8842 24.6297 59.172 24.0992C60.5577 28.3382 63.7044 32.025 67.8339 33.9307C68.8276 34.3908 69.8489 34.7481 70.9034 35.0621C70.3624 34.3638 69.8213 33.6708 69.2803 32.9724V40.6492C69.2803 42.0243 69.1864 43.3994 69.0043 44.7637C69.0319 44.5742 69.0595 44.3793 69.0816 44.1898C68.7062 46.8805 67.9719 49.517 66.9009 52.0236C66.9727 51.8504 67.05 51.6771 67.1217 51.5039C66.0673 53.9401 64.6982 56.2356 63.053 58.3307L63.4008 57.8922C61.7833 59.9386 59.9062 61.7793 57.8194 63.3655L58.2666 63.0245C57.03 63.9611 55.7161 64.7677 54.4022 65.5906C52.9447 66.5001 51.4872 67.4043 50.0298 68.3138C49.6544 68.5466 49.2735 68.7848 48.8981 69.0176C48.4178 69.3153 48.0368 69.7647 47.8823 70.3115C47.7387 70.8312 47.805 71.5187 48.1031 71.9789C48.7324 72.9318 50.0795 73.3973 51.1229 72.7477Z" fill="#806D95"/>
<path d="M38.7566 47.0808L44.4263 52.6408L45.2324 53.4312C46.077 54.2595 47.5124 54.2595 48.357 53.4312L52.7349 49.1381L59.6633 42.3437L61.2588 40.7791C62.0759 39.9779 62.1366 38.5053 61.2588 37.7149C60.3755 36.9191 59.0064 36.8595 58.1341 37.7149L53.7562 42.0081L46.8278 48.8024L45.2324 50.367H48.357L42.6873 44.807L41.8813 44.0166C41.0643 43.2154 39.5626 43.1558 38.7566 44.0166C37.9451 44.8828 37.8844 46.22 38.7566 47.0808Z" fill="#806D95"/>
<rect x="26.2051" y="20.9347" width="49.0931" height="10.2122" fill="white"/>
<rect width="26.9105" height="4.38931" rx="2.19466" transform="matrix(0.92698 -0.375112 0.387851 0.921722 25.8462 31.7585)" fill="#B7A4C6"/>
<rect width="27.4228" height="4.38931" rx="2.19466" transform="matrix(-0.92698 -0.375112 -0.387851 0.921722 74.3428 31.7256)" fill="#B7A4C6"/>
<path d="M131.401 191.617C131.418 190.628 132.234 189.84 133.223 189.858L134.928 189.887L134.646 206L131.151 205.939L131.401 191.617Z" fill="white"/>
<rect x="114.829" y="191.068" width="6.68286" height="11.9707" fill="white"/>
<path d="M52.9724 119.555C52.8989 119.587 52.8172 119.597 52.739 119.582C52.6608 119.566 52.5901 119.527 52.5372 119.469C52.4842 119.412 52.4516 119.339 52.4441 119.261C52.4366 119.183 52.4545 119.104 52.4953 119.036C54.8269 115.407 57.6037 112.064 60.7617 109.087C65.6834 104.407 73.7351 98.5635 84.1449 97.3037C84.1945 97.2976 84.2446 97.3011 84.2924 97.314C84.3402 97.3269 84.3847 97.349 84.4233 97.379C84.462 97.4089 84.494 97.4462 84.5176 97.4887C84.5412 97.5311 84.5559 97.5779 84.5609 97.6264C84.5658 97.6749 84.5609 97.724 84.5465 97.7711C84.5321 97.8182 84.5083 97.8622 84.4767 97.9007C84.4451 97.9391 84.4061 97.9713 84.3621 97.9953C84.3181 98.0194 84.2699 98.0347 84.2203 98.0406C74.0239 99.2748 66.1194 105.015 61.2837 109.613C58.1758 112.542 55.443 115.829 53.1481 119.399C53.1075 119.467 53.0459 119.522 52.9724 119.555Z" fill="#323232"/>
</svg>
