<svg width="15" height="16" viewBox="0 0 15 16" fill="none" xmlns="http://www.w3.org/2000/svg">
<path d="M14.9997 11.7246C14.9674 12.0384 14.8517 12.3384 14.664 12.595C14.4932 12.8422 14.2627 13.0446 13.9928 13.1841C13.723 13.3236 13.4221 13.396 13.1168 13.3949H10.71C10.6675 13.6103 10.6045 13.8214 10.5218 14.0253C10.357 14.4166 10.1144 14.7721 9.80804 15.0712C9.50171 15.3702 9.13772 15.607 8.73714 15.7676C8.33192 15.9276 7.89723 16.006 7.46008 15.9996H7.39459C6.99016 15.996 6.59012 15.9172 6.21576 15.7676C5.80905 15.6133 5.44067 15.3761 5.13517 15.0717C4.8267 14.7744 4.58425 14.4182 4.42296 14.0253C4.34019 13.8211 4.27715 13.6098 4.23468 13.3941H1.92614C1.62464 13.4177 1.32185 13.368 1.04475 13.2495C0.767659 13.131 0.524863 12.9474 0.337999 12.715C0.161216 12.4344 0.0504162 12.1191 0.0136067 11.7916C-0.0232027 11.4641 0.014898 11.1327 0.125155 10.8214C0.303166 10.3596 0.545588 9.92406 0.84555 9.52707C1.19037 9.12007 1.42161 8.63285 1.51683 8.11272C1.51683 5.80401 1.51683 5.02084 2.81026 3.51849C3.23668 3.02066 3.76697 2.61756 4.36566 2.33613L5.00419 2.03214C5.03544 2.01283 5.06312 1.98849 5.08605 1.96015C5.11078 1.92986 5.12763 1.89418 5.13517 1.85615C5.22814 1.46605 5.41954 1.10489 5.69193 0.805588C5.96432 0.506289 6.30904 0.278373 6.69466 0.142613C7.08041 0.00651944 7.49489 -0.0330082 7.90028 0.0276372C8.30567 0.0882827 8.68906 0.24717 9.01548 0.489801C9.46319 0.838333 9.75636 1.34197 9.83411 1.89615V1.97615C9.85792 2.00881 9.88863 2.03609 9.92416 2.05614L10.5136 2.33613C11.1112 2.61612 11.6416 3.01611 12.069 3.51049C13.3624 5.02084 13.3624 5.80401 13.3624 8.11272C13.4721 8.6647 13.7226 9.18148 14.091 9.61507C14.3857 9.99986 14.6247 10.4222 14.8032 10.8694C14.9375 11.135 15.0054 11.4278 14.9997 11.7246Z" fill="#806D95"/>
</svg>
