<svg width="19" height="16" viewBox="0 0 19 16" fill="none" xmlns="http://www.w3.org/2000/svg">
<path d="M1.72727 0C0.768636 0 0 0.749474 0 1.68421V11.7895C0 12.2362 0.18198 12.6645 0.505907 12.9804C0.829833 13.2962 1.26917 13.4737 1.72727 13.4737H10.7955C10.5104 12.8066 10.3636 12.0911 10.3636 11.3684C10.3636 9.91671 10.9551 8.52446 12.0078 7.49794C13.0606 6.47143 14.4884 5.89474 15.9773 5.89474C16.4137 5.89599 16.8484 5.94686 17.2727 6.04632V1.68421C17.2727 1.23753 17.0907 0.809144 16.7668 0.493294C16.4429 0.177443 16.0036 0 15.5455 0H1.72727ZM1.72727 1.68421L8.63636 5.89474L15.5455 1.68421V3.36842L8.63636 7.57895L1.72727 3.36842V1.68421ZM15.5455 6.73684L13.6023 8.63158L15.5455 10.5263V9.26316C16.1181 9.26316 16.6673 9.48496 17.0722 9.87978C17.4771 10.2746 17.7045 10.8101 17.7045 11.3684C17.7045 11.7053 17.6268 12.0253 17.48 12.3116L18.4214 13.2295C18.7841 12.6989 19 12.0589 19 11.3684C19 9.50737 17.4541 8 15.5455 8V6.73684ZM12.6695 9.50737C12.3068 10.0379 12.0909 10.6779 12.0909 11.3684C12.0909 13.2295 13.6368 14.7368 15.5455 14.7368V16L17.4886 14.1053L15.5455 12.2105V13.4737C14.9728 13.4737 14.4237 13.2519 14.0187 12.8571C13.6138 12.4623 13.3864 11.9268 13.3864 11.3684C13.3864 11.0316 13.4641 10.7116 13.6109 10.4253L12.6695 9.50737Z" fill="#806D95"/>
</svg>
