<svg width="16" height="16" viewBox="0 0 16 16" fill="none" xmlns="http://www.w3.org/2000/svg">
<path d="M0.440241 0.0252533C0.517761 0.00233196 0.599037 -0.00508948 0.679427 0.00341299C0.759816 0.0119155 0.837742 0.0361751 0.908753 0.074806C0.979763 0.113437 1.04247 0.165682 1.09328 0.228555C1.14409 0.291429 1.18202 0.363699 1.20489 0.441237L1.65614 1.96979H13.6797C15.1893 1.96979 16.3421 3.37856 15.9072 4.84968L14.5494 9.44436C14.2606 10.4232 13.3425 11.0771 12.3219 11.0771H4.80992C3.78929 11.0771 2.87203 10.4232 2.58242 9.44436L0.0250964 0.789941C-0.0209756 0.633593 -0.00313861 0.465353 0.0746927 0.322143C0.152524 0.178933 0.283991 0.0716335 0.440241 0.0252533ZM3.28143 14.1539C3.28143 13.6643 3.47592 13.1948 3.82211 12.8485C4.16831 12.5023 4.63784 12.3078 5.12743 12.3078C5.61702 12.3078 6.08656 12.5023 6.43275 12.8485C6.77894 13.1948 6.97343 13.6643 6.97343 14.1539C6.97343 14.6435 6.77894 15.1131 6.43275 15.4593C6.08656 15.8055 5.61702 16 5.12743 16C4.63784 16 4.16831 15.8055 3.82211 15.4593C3.47592 15.1131 3.28143 14.6435 3.28143 14.1539ZM9.84498 14.1539C9.84498 13.9115 9.89273 13.6714 9.9855 13.4475C10.0783 13.2235 10.2142 13.02 10.3857 12.8485C10.5571 12.6771 10.7606 12.5411 10.9845 12.4484C11.2085 12.3556 11.4486 12.3078 11.691 12.3078C11.9334 12.3078 12.1734 12.3556 12.3974 12.4484C12.6214 12.5411 12.8249 12.6771 12.9963 12.8485C13.1677 13.02 13.3037 13.2235 13.3965 13.4475C13.4892 13.6714 13.537 13.9115 13.537 14.1539C13.537 14.6435 13.3425 15.1131 12.9963 15.4593C12.6501 15.8055 12.1806 16 11.691 16C11.2014 16 10.7318 15.8055 10.3857 15.4593C10.0395 15.1131 9.84498 14.6435 9.84498 14.1539Z" fill="#806D95"/>
</svg>
