<svg width="18" height="18" viewBox="0 0 18 18" fill="none" xmlns="http://www.w3.org/2000/svg">
<path d="M17.0763 6.33759L11.6245 0.889124L12.0075 0.50638C12.3529 0.161161 12.781 -0.00754612 13.2916 0.000258838C13.8023 0.0080638 14.2303 0.184276 14.5757 0.528895L17.4819 3.43324C17.8273 3.77846 18 4.20263 18 4.70575C18 5.20887 17.8273 5.63274 17.4819 5.97736L17.0763 6.33759ZM5.96996 17.4822C5.62453 17.8274 5.2004 18 4.69757 18C4.19474 18 3.77031 17.8274 3.42428 17.4822L0.518148 14.5778C0.172716 14.2326 0 13.8087 0 13.3062C0 12.8037 0.172716 12.3795 0.518148 12.0337L0.878598 11.6735L6.33041 17.1219L5.96996 17.4822ZM9.23655 16.8518C9.05632 17.0319 8.84606 17.1219 8.60576 17.1219C8.36546 17.1219 8.15519 17.0319 7.97497 16.8518L1.14894 10.0299C0.968711 9.84982 0.878598 9.63969 0.878598 9.39953C0.878598 9.15938 0.968711 8.94925 1.14894 8.76913L2.43304 7.4633C2.61327 7.28319 2.82743 7.19313 3.07554 7.19313C3.32365 7.19313 3.53752 7.28319 3.71715 7.4633L5.13642 8.8817L8.87609 5.14433L7.45682 3.72593C7.2766 3.54581 7.18648 3.33568 7.18648 3.09553C7.18648 2.85537 7.2766 2.64524 7.45682 2.46513L8.74093 1.1593C8.92115 0.979181 9.13532 0.889124 9.38343 0.889124C9.63154 0.889124 9.84541 0.979181 10.025 1.1593L16.8511 7.98113C17.0313 8.16125 17.1214 8.37528 17.1214 8.62324C17.1214 8.8712 17.0313 9.08493 16.8511 9.26445L15.5444 10.5478C15.3642 10.7279 15.1539 10.8179 14.9136 10.8179C14.6733 10.8179 14.4631 10.7279 14.2829 10.5478L12.8636 9.12936L9.1239 12.8667L10.5432 14.2851C10.7234 14.4653 10.8135 14.679 10.8135 14.9263C10.8135 15.1737 10.7234 15.3877 10.5432 15.5685L9.23655 16.8518Z" fill="#000" />
</svg>
