<svg width="54" height="34" viewBox="0 0 54 34" fill="none" xmlns="http://www.w3.org/2000/svg">
<path d="M35.0763 14.3376L29.6245 8.88912L30.0075 8.50638C30.3529 8.16116 30.781 7.99245 31.2916 8.00026C31.8023 8.00806 32.2303 8.18428 32.5757 8.52889L35.4819 11.4332C35.8273 11.7785 36 12.2026 36 12.7057C36 13.2089 35.8273 13.6327 35.4819 13.9774L35.0763 14.3376ZM23.97 25.4822C23.6245 25.8274 23.2004 26 22.6976 26C22.1947 26 21.7703 25.8274 21.4243 25.4822L18.5181 22.5778C18.1727 22.2326 18 21.8087 18 21.3062C18 20.8037 18.1727 20.3795 18.5181 20.0337L18.8786 19.6735L24.3304 25.1219L23.97 25.4822ZM27.2365 24.8518C27.0563 25.0319 26.8461 25.1219 26.6058 25.1219C26.3655 25.1219 26.1552 25.0319 25.975 24.8518L19.1489 18.0299C18.9687 17.8498 18.8786 17.6397 18.8786 17.3995C18.8786 17.1594 18.9687 16.9492 19.1489 16.7691L20.433 15.4633C20.6133 15.2832 20.8274 15.1931 21.0755 15.1931C21.3237 15.1931 21.5375 15.2832 21.7171 15.4633L23.1364 16.8817L26.8761 13.1443L25.4568 11.7259C25.2766 11.5458 25.1865 11.3357 25.1865 11.0955C25.1865 10.8554 25.2766 10.6452 25.4568 10.4651L26.7409 9.1593C26.9212 8.97918 27.1353 8.88912 27.3834 8.88912C27.6315 8.88912 27.8454 8.97918 28.025 9.1593L34.8511 15.9811C35.0313 16.1612 35.1214 16.3753 35.1214 16.6232C35.1214 16.8712 35.0313 17.0849 34.8511 17.2644L33.5444 18.5478C33.3642 18.7279 33.1539 18.8179 32.9136 18.8179C32.6733 18.8179 32.4631 18.7279 32.2829 18.5478L30.8636 17.1294L27.1239 20.8667L28.5432 22.2851C28.7234 22.4653 28.8135 22.679 28.8135 22.9263C28.8135 23.1737 28.7234 23.3877 28.5432 23.5685L27.2365 24.8518Z" fill="#331E53" fill-opacity="0.5"/>
</svg>
