<svg width="16" height="18" viewBox="0 0 16 18" fill="none" xmlns="http://www.w3.org/2000/svg">
<path d="M0 15.9429V6.68571C0 6.36 0.0709998 6.05143 0.213 5.76C0.355 5.46857 0.550667 5.22857 0.8 5.04L6.8 0.411429C7.15 0.137143 7.55 0 8 0C8.45 0 8.85 0.137143 9.2 0.411429L15.2 5.04C15.45 5.22857 15.646 5.46857 15.788 5.76C15.93 6.05143 16.0007 6.36 16 6.68571V15.9429C16 16.5086 15.804 16.993 15.412 17.3962C15.02 17.7994 14.5493 18.0007 14 18H11C10.7167 18 10.4793 17.9013 10.288 17.7038C10.0967 17.5063 10.0007 17.2622 10 16.9714V11.8286C10 11.5371 9.904 11.293 9.712 11.0962C9.52 10.8994 9.28266 10.8007 9 10.8H7C6.71667 10.8 6.47933 10.8987 6.288 11.0962C6.09667 11.2937 6.00067 11.5378 6 11.8286V16.9714C6 17.2629 5.904 17.5073 5.712 17.7048C5.52 17.9023 5.28267 18.0007 5 18H2C1.45 18 0.979333 17.7987 0.588 17.3962C0.196666 16.9937 0.000666666 16.5093 0 15.9429Z" fill="#000" />
</svg>
