<svg width="73" height="49" viewBox="0 0 73 49" fill="none" xmlns="http://www.w3.org/2000/svg">
<rect width="73" height="49" rx="23" fill="#B7A4C6" fill-opacity="0.5"/>
<path d="M29.5 22.1714V13.9429C29.5 13.6533 29.5621 13.379 29.6864 13.12C29.8106 12.861 29.9818 12.6476 30.2 12.48L35.45 8.36571C35.7562 8.1219 36.1062 8 36.5 8C36.8937 8 37.2437 8.1219 37.55 8.36571L42.8 12.48C43.0187 12.6476 43.1902 12.861 43.3145 13.12C43.4387 13.379 43.5006 13.6533 43.5 13.9429V22.1714C43.5 22.6743 43.3285 23.1049 42.9855 23.4633C42.6425 23.8217 42.2307 24.0006 41.75 24H39.125C38.8771 24 38.6694 23.9122 38.502 23.7367C38.3346 23.5611 38.2506 23.3441 38.25 23.0857V18.5143C38.25 18.2552 38.166 18.0382 37.998 17.8633C37.83 17.6884 37.6223 17.6006 37.375 17.6H35.625C35.3771 17.6 35.1694 17.6878 35.002 17.8633C34.8346 18.0389 34.7506 18.2558 34.75 18.5143V23.0857C34.75 23.3448 34.666 23.5621 34.498 23.7376C34.33 23.9131 34.1223 24.0006 33.875 24H31.25C30.7687 24 30.3569 23.8211 30.0145 23.4633C29.6721 23.1055 29.5006 22.6749 29.5 22.1714Z" fill="#FCF8FF"/>
<path d="M25.2 38V29.24H26.376V38H25.2ZM19.272 38V29.24H20.448V38H19.272ZM20.208 34.172V33.116H25.44V34.172H20.208ZM31.7005 38.216C31.1405 38.216 30.6485 38.12 30.2245 37.928C29.8005 37.736 29.4405 37.484 29.1445 37.172C28.8565 36.852 28.6365 36.496 28.4845 36.104C28.3405 35.712 28.2685 35.312 28.2685 34.904V34.688C28.2685 34.28 28.3445 33.88 28.4965 33.488C28.6485 33.088 28.8725 32.732 29.1685 32.42C29.4645 32.1 29.8245 31.848 30.2485 31.664C30.6725 31.472 31.1565 31.376 31.7005 31.376C32.2445 31.376 32.7285 31.472 33.1525 31.664C33.5765 31.848 33.9365 32.1 34.2325 32.42C34.5285 32.732 34.7525 33.088 34.9045 33.488C35.0565 33.88 35.1325 34.28 35.1325 34.688V34.904C35.1325 35.312 35.0565 35.712 34.9045 36.104C34.7605 36.496 34.5405 36.852 34.2445 37.172C33.9565 37.484 33.6005 37.736 33.1765 37.928C32.7525 38.12 32.2605 38.216 31.7005 38.216ZM31.7005 37.184C32.1805 37.184 32.5885 37.08 32.9245 36.872C33.2685 36.656 33.5285 36.368 33.7045 36.008C33.8885 35.648 33.9805 35.244 33.9805 34.796C33.9805 34.34 33.8885 33.932 33.7045 33.572C33.5205 33.212 33.2565 32.928 32.9125 32.72C32.5765 32.512 32.1725 32.408 31.7005 32.408C31.2365 32.408 30.8325 32.512 30.4885 32.72C30.1445 32.928 29.8805 33.212 29.6965 33.572C29.5125 33.932 29.4205 34.34 29.4205 34.796C29.4205 35.244 29.5085 35.648 29.6845 36.008C29.8685 36.368 30.1285 36.656 30.4645 36.872C30.8085 37.08 31.2205 37.184 31.7005 37.184ZM36.8579 38V31.592H37.7699V34.34H37.6259C37.6259 33.716 37.7059 33.188 37.8659 32.756C38.0339 32.316 38.2819 31.98 38.6099 31.748C38.9379 31.516 39.3539 31.4 39.8579 31.4H39.9059C40.4099 31.4 40.8259 31.516 41.1539 31.748C41.4899 31.98 41.7379 32.316 41.8979 32.756C42.0579 33.188 42.1379 33.716 42.1379 34.34H41.8019C41.8019 33.716 41.8859 33.188 42.0539 32.756C42.2219 32.316 42.4699 31.98 42.7979 31.748C43.1339 31.516 43.5539 31.4 44.0579 31.4H44.1059C44.6099 31.4 45.0299 31.516 45.3659 31.748C45.7019 31.98 45.9499 32.316 46.1099 32.756C46.2779 33.188 46.3619 33.716 46.3619 34.34V38H45.2099V34.088C45.2099 33.568 45.0819 33.168 44.8259 32.888C44.5699 32.6 44.2139 32.456 43.7579 32.456C43.2859 32.456 42.9059 32.608 42.6179 32.912C42.3299 33.208 42.1859 33.624 42.1859 34.16V38H41.0339V34.088C41.0339 33.568 40.9059 33.168 40.6499 32.888C40.3939 32.6 40.0379 32.456 39.5819 32.456C39.1099 32.456 38.7299 32.608 38.4419 32.912C38.1539 33.208 38.0099 33.624 38.0099 34.16V38H36.8579ZM51.1952 38.216C50.6352 38.216 50.1512 38.12 49.7432 37.928C49.3352 37.736 49.0032 37.484 48.7472 37.172C48.4912 36.852 48.2992 36.496 48.1712 36.104C48.0512 35.712 47.9912 35.312 47.9912 34.904V34.688C47.9912 34.272 48.0512 33.868 48.1712 33.476C48.2992 33.084 48.4912 32.732 48.7472 32.42C49.0032 32.1 49.3272 31.848 49.7192 31.664C50.1192 31.472 50.5872 31.376 51.1232 31.376C51.8192 31.376 52.3912 31.528 52.8392 31.832C53.2952 32.128 53.6312 32.512 53.8472 32.984C54.0712 33.456 54.1832 33.96 54.1832 34.496V35.012H48.4952V34.148H53.3432L53.0792 34.616C53.0792 34.16 53.0072 33.768 52.8632 33.44C52.7192 33.104 52.5032 32.844 52.2152 32.66C51.9272 32.476 51.5632 32.384 51.1232 32.384C50.6672 32.384 50.2872 32.488 49.9832 32.696C49.6872 32.904 49.4632 33.188 49.3112 33.548C49.1672 33.908 49.0952 34.324 49.0952 34.796C49.0952 35.252 49.1672 35.664 49.3112 36.032C49.4632 36.392 49.6952 36.68 50.0072 36.896C50.3192 37.104 50.7152 37.208 51.1952 37.208C51.6992 37.208 52.1072 37.096 52.4192 36.872C52.7392 36.648 52.9312 36.388 52.9952 36.092H54.0752C53.9872 36.532 53.8112 36.912 53.5472 37.232C53.2832 37.552 52.9512 37.796 52.5512 37.964C52.1512 38.132 51.6992 38.216 51.1952 38.216Z" fill="#FCF8FF"/>
</svg>
