<svg width="15" height="18" viewBox="0 0 15 18" fill="none" xmlns="http://www.w3.org/2000/svg">
<path d="M0 13.8925V7.74193C0 7.28315 0.163333 6.89605 0.49 6.58064C0.816667 6.26523 1.20194 6.12186 1.64583 6.15053C2.74306 6.32258 3.78833 6.65605 4.78167 7.15096C5.775 7.64587 6.68111 8.28731 7.5 9.07526C8.31944 8.28674 9.22583 7.64502 10.2192 7.1501C11.2125 6.65519 12.2575 6.322 13.3542 6.15053C13.7986 6.12186 14.1842 6.26523 14.5108 6.58064C14.8375 6.89605 15.0006 7.28315 15 7.74193V13.8925C15 14.3512 14.8542 14.7421 14.5625 15.0649C14.2708 15.3878 13.9028 15.5633 13.4583 15.5914C12.5694 15.7348 11.7083 15.9713 10.875 16.3011C10.0417 16.6308 9.26389 17.0681 8.54167 17.6129C8.38889 17.7419 8.22583 17.8386 8.0525 17.9028C7.87917 17.967 7.695 17.9994 7.5 18C7.305 18.0006 7.12083 17.9685 6.9475 17.9036C6.77417 17.8388 6.61111 17.7419 6.45833 17.6129C5.73611 17.0681 4.95833 16.6308 4.125 16.3011C3.29167 15.9713 2.43056 15.7348 1.54167 15.5914C1.09722 15.5627 0.729167 15.3872 0.4375 15.0649C0.145833 14.7426 0 14.3518 0 13.8925ZM5.14583 5.87097C4.49306 5.19713 4.16667 4.38709 4.16667 3.44086C4.16667 2.49462 4.49306 1.68459 5.14583 1.01075C5.79861 0.336917 6.58333 0 7.5 0C8.41667 0 9.20139 0.336917 9.85417 1.01075C10.5069 1.68459 10.8333 2.49462 10.8333 3.44086C10.8333 4.38709 10.5069 5.19713 9.85417 5.87097C9.20139 6.5448 8.41667 6.88172 7.5 6.88172C6.58333 6.88172 5.79861 6.5448 5.14583 5.87097Z" fill="#000" />
</svg>
