<svg width="51" height="34" viewBox="0 0 51 34" fill="none" xmlns="http://www.w3.org/2000/svg">
<path d="M18 21.8925V15.7419C18 15.2832 18.1633 14.8961 18.49 14.5806C18.8167 14.2652 19.2019 14.1219 19.6458 14.1505C20.7431 14.3226 21.7883 14.6561 22.7817 15.151C23.775 15.6459 24.6811 16.2873 25.5 17.0753C26.3194 16.2867 27.2258 15.645 28.2192 15.1501C29.2125 14.6552 30.2575 14.322 31.3542 14.1505C31.7986 14.1219 32.1842 14.2652 32.5108 14.5806C32.8375 14.8961 33.0006 15.2832 33 15.7419V21.8925C33 22.3512 32.8542 22.7421 32.5625 23.0649C32.2708 23.3878 31.9028 23.5633 31.4583 23.5914C30.5694 23.7348 29.7083 23.9713 28.875 24.3011C28.0417 24.6308 27.2639 25.0681 26.5417 25.6129C26.3889 25.7419 26.2258 25.8386 26.0525 25.9028C25.8792 25.967 25.695 25.9994 25.5 26C25.305 26.0006 25.1208 25.9685 24.9475 25.9036C24.7742 25.8388 24.6111 25.7419 24.4583 25.6129C23.7361 25.0681 22.9583 24.6308 22.125 24.3011C21.2917 23.9713 20.4306 23.7348 19.5417 23.5914C19.0972 23.5627 18.7292 23.3872 18.4375 23.0649C18.1458 22.7426 18 22.3518 18 21.8925ZM23.1458 13.871C22.4931 13.1971 22.1667 12.3871 22.1667 11.4409C22.1667 10.4946 22.4931 9.68459 23.1458 9.01075C23.7986 8.33692 24.5833 8 25.5 8C26.4167 8 27.2014 8.33692 27.8542 9.01075C28.5069 9.68459 28.8333 10.4946 28.8333 11.4409C28.8333 12.3871 28.5069 13.1971 27.8542 13.871C27.2014 14.5448 26.4167 14.8817 25.5 14.8817C24.5833 14.8817 23.7986 14.5448 23.1458 13.871Z" fill="#331E53" fill-opacity="0.5"/>
</svg>
