<svg width="52" height="32" viewBox="0 0 52 32" fill="none" xmlns="http://www.w3.org/2000/svg">
<path d="M19.7778 24C19.2889 24 18.8705 23.8261 18.5227 23.4782C18.1748 23.1304 18.0006 22.7117 18 22.2222V9.77778C18 9.28889 18.1742 8.87052 18.5227 8.52267C18.8711 8.17481 19.2895 8.00059 19.7778 8H29.5556L34 12.4444V22.2222C34 22.7111 33.8261 23.1298 33.4782 23.4782C33.1304 23.8267 32.7117 24.0006 32.2222 24H19.7778ZM21.5556 20.4444H30.4444V18.6667H21.5556V20.4444ZM21.5556 16.8889H30.4444V15.1111H21.5556V16.8889ZM28.6667 13.3333H32.2222L28.6667 9.77778V13.3333ZM21.5556 13.3333H26V11.5556H21.5556V13.3333Z" fill="#331E53" fill-opacity="0.5"/>
</svg>
