<svg width="76" height="51" viewBox="0 0 76 51" fill="none" xmlns="http://www.w3.org/2000/svg">
<rect width="76" height="51" rx="23" fill="#B7A4C6" fill-opacity="0.5"/>
<path fill-rule="evenodd" clip-rule="evenodd" d="M34 12C34 10.9391 34.4214 9.92172 35.1716 9.17157C35.9217 8.42143 36.9391 8 38 8C39.0609 8 40.0783 8.42143 40.8284 9.17157C41.5786 9.92172 42 10.9391 42 12C42 13.0609 41.5786 14.0783 40.8284 14.8284C40.0783 15.5786 39.0609 16 38 16C36.9391 16 35.9217 15.5786 35.1716 14.8284C34.4214 14.0783 34 13.0609 34 12ZM34 18C32.6739 18 31.4021 18.5268 30.4645 19.4645C29.5268 20.4021 29 21.6739 29 23C29 23.7956 29.3161 24.5587 29.8787 25.1213C30.4413 25.6839 31.2044 26 32 26H44C44.7956 26 45.5587 25.6839 46.1213 25.1213C46.6839 24.5587 47 23.7956 47 23C47 21.6739 46.4732 20.4021 45.5355 19.4645C44.5979 18.5268 43.3261 18 42 18H34Z" fill="#331E53"/>
<path d="M20.208 36.952V35.92H22.164C22.58 35.92 22.924 35.84 23.196 35.68C23.468 35.512 23.672 35.288 23.808 35.008C23.952 34.728 24.024 34.416 24.024 34.072C24.024 33.72 23.952 33.404 23.808 33.124C23.672 32.844 23.468 32.624 23.196 32.464C22.924 32.304 22.58 32.224 22.164 32.224H20.208V31.192H21.948C22.668 31.192 23.268 31.308 23.748 31.54C24.236 31.764 24.604 32.084 24.852 32.5C25.1 32.916 25.224 33.408 25.224 33.976V34.168C25.224 34.728 25.1 35.22 24.852 35.644C24.604 36.06 24.236 36.384 23.748 36.616C23.268 36.84 22.668 36.952 21.948 36.952H20.208ZM19.272 40V31.192H20.448V40H19.272ZM26.8032 40V33.592H27.7152V36.232H27.6672C27.6672 35.296 27.8712 34.612 28.2792 34.18C28.6952 33.74 29.3152 33.52 30.1392 33.52H30.3552V34.552H29.9472C29.3072 34.552 28.8152 34.724 28.4712 35.068C28.1272 35.404 27.9552 35.892 27.9552 36.532V40H26.8032ZM34.6068 40.216C34.0468 40.216 33.5548 40.12 33.1308 39.928C32.7068 39.736 32.3468 39.484 32.0508 39.172C31.7628 38.852 31.5428 38.496 31.3908 38.104C31.2468 37.712 31.1748 37.312 31.1748 36.904V36.688C31.1748 36.28 31.2508 35.88 31.4028 35.488C31.5548 35.088 31.7788 34.732 32.0748 34.42C32.3708 34.1 32.7308 33.848 33.1548 33.664C33.5788 33.472 34.0628 33.376 34.6068 33.376C35.1508 33.376 35.6348 33.472 36.0588 33.664C36.4828 33.848 36.8428 34.1 37.1388 34.42C37.4348 34.732 37.6588 35.088 37.8108 35.488C37.9628 35.88 38.0388 36.28 38.0388 36.688V36.904C38.0388 37.312 37.9628 37.712 37.8108 38.104C37.6668 38.496 37.4468 38.852 37.1508 39.172C36.8628 39.484 36.5068 39.736 36.0828 39.928C35.6588 40.12 35.1668 40.216 34.6068 40.216ZM34.6068 39.184C35.0868 39.184 35.4948 39.08 35.8308 38.872C36.1748 38.656 36.4348 38.368 36.6108 38.008C36.7948 37.648 36.8868 37.244 36.8868 36.796C36.8868 36.34 36.7948 35.932 36.6108 35.572C36.4268 35.212 36.1628 34.928 35.8188 34.72C35.4828 34.512 35.0788 34.408 34.6068 34.408C34.1428 34.408 33.7388 34.512 33.3948 34.72C33.0508 34.928 32.7868 35.212 32.6028 35.572C32.4188 35.932 32.3268 36.34 32.3268 36.796C32.3268 37.244 32.4148 37.648 32.5908 38.008C32.7748 38.368 33.0348 38.656 33.3708 38.872C33.7148 39.08 34.1268 39.184 34.6068 39.184ZM39.9322 40V33.196C39.9322 32.484 40.1202 31.96 40.4962 31.624C40.8722 31.288 41.4242 31.12 42.1522 31.12H42.8722V32.08H41.9602C41.6642 32.08 41.4362 32.164 41.2762 32.332C41.1162 32.492 41.0362 32.716 41.0362 33.004V40H39.9322ZM39.0442 34.456V33.592H42.7522V34.456H39.0442ZM44.3362 40V33.592H45.4882V40H44.3362ZM43.4002 34.504V33.592H45.4882V34.504H43.4002ZM44.6602 32.56C44.4042 32.56 44.2122 32.492 44.0842 32.356C43.9642 32.22 43.9042 32.048 43.9042 31.84C43.9042 31.632 43.9642 31.46 44.0842 31.324C44.2122 31.188 44.4042 31.12 44.6602 31.12C44.9162 31.12 45.1042 31.188 45.2242 31.324C45.3522 31.46 45.4162 31.632 45.4162 31.84C45.4162 32.048 45.3522 32.22 45.2242 32.356C45.1042 32.492 44.9162 32.56 44.6602 32.56ZM47.7932 40V31.24H48.9452V40H47.7932ZM46.9052 32.152V31.24H48.9452V32.152H46.9052ZM53.8788 40.216C53.3188 40.216 52.8348 40.12 52.4268 39.928C52.0188 39.736 51.6868 39.484 51.4308 39.172C51.1748 38.852 50.9828 38.496 50.8548 38.104C50.7348 37.712 50.6748 37.312 50.6748 36.904V36.688C50.6748 36.272 50.7348 35.868 50.8548 35.476C50.9828 35.084 51.1748 34.732 51.4308 34.42C51.6868 34.1 52.0108 33.848 52.4028 33.664C52.8028 33.472 53.2708 33.376 53.8068 33.376C54.5028 33.376 55.0748 33.528 55.5228 33.832C55.9788 34.128 56.3148 34.512 56.5308 34.984C56.7548 35.456 56.8668 35.96 56.8668 36.496V37.012H51.1788V36.148H56.0268L55.7628 36.616C55.7628 36.16 55.6908 35.768 55.5468 35.44C55.4028 35.104 55.1868 34.844 54.8988 34.66C54.6108 34.476 54.2468 34.384 53.8068 34.384C53.3508 34.384 52.9708 34.488 52.6668 34.696C52.3708 34.904 52.1468 35.188 51.9948 35.548C51.8508 35.908 51.7788 36.324 51.7788 36.796C51.7788 37.252 51.8508 37.664 51.9948 38.032C52.1468 38.392 52.3788 38.68 52.6908 38.896C53.0028 39.104 53.3988 39.208 53.8788 39.208C54.3828 39.208 54.7908 39.096 55.1028 38.872C55.4228 38.648 55.6148 38.388 55.6788 38.092H56.7588C56.6708 38.532 56.4948 38.912 56.2308 39.232C55.9668 39.552 55.6348 39.796 55.2348 39.964C54.8348 40.132 54.3828 40.216 53.8788 40.216Z" fill="#331E53"/>
</svg>
